# xmcd CD database file
#
# Track frame offsets:
#	150
#	32190
#	59152
#	84595
#	114840
#	140077
#	173272
#	190062
#	228430
#	262560
#	281667
#
# Disc length: 4023 seconds
#
# Revision: 0
# Processed by: cddbd v1.5PL3 Copyright (c) Steve Scherf et al.
# Submitted via: CDex 1.51
#
DISCID=8f0fb50b
DTITLE=Anna-Lena Laurin - Dance in Music
DYEAR=1994
DGENRE=Jazz
TTITLE0=Mrs Hope
TTITLE1=All by myself
TTITLE2=Blunda och njut
TTITLE3=Trapped
TTITLE4=The Fairy Queen
TTITLE5=Dance in music
TTITLE6=Herr och fru
TTITLE7=Pregnant festival
TTITLE8=Apart
TTITLE9=Mr Goatcabin
TTITLE10=Vaggvisa
EXTD=YEAR: 1994
EXTT0=
EXTT1=
EXTT2=
EXTT3=
EXTT4=
EXTT5=
EXTT6=
EXTT7=
EXTT8=
EXTT9=
EXTT10=
PLAYORDER=
